<svg width="70" height="70" viewBox="0 0 70 70" fill="none" xmlns="http://www.w3.org/2000/svg">
<path d="M54.6541 38.0689L58.6667 36.7008V32.5825L54.6541 31.2144C53.9465 30.9721 53.4065 30.3931 53.2136 29.6703C53.0208 28.9479 53.2012 28.1768 53.6942 27.6144L56.4842 24.4222L54.425 20.8559L50.2669 21.6816C49.5308 21.8302 48.7694 21.6008 48.2386 21.0696C47.7075 20.5389 47.478 19.7775 47.6267 19.0414L48.4476 14.8833L44.8833 12.8277L41.6911 15.6178H41.6915C41.129 16.1108 40.358 16.2908 39.6356 16.0983C38.9128 15.9054 38.3339 15.3654 38.0915 14.6579L36.7259 10.6416H32.6076L31.2395 14.6543C30.9972 15.3618 30.4182 15.9018 29.6954 16.0947C28.9729 16.2876 28.2019 16.1072 27.6394 15.6142L24.4472 12.8241L20.8834 14.887L21.7067 19.0415C21.8554 19.7776 21.6259 20.539 21.0948 21.0697C20.564 21.6009 19.8027 21.8303 19.0665 21.6817L14.9084 20.8608L12.8529 24.425L15.6429 27.6172V27.6168C16.1359 28.1793 16.3159 28.9504 16.1235 29.6727C15.9306 30.3955 15.3906 30.9745 14.683 31.2168L10.6667 32.5825V36.7008L14.6794 38.0689C15.387 38.3112 15.927 38.8902 16.1198 39.613C16.3127 40.3354 16.1323 41.1065 15.6393 41.6689L12.8493 44.8611L14.9085 48.4274L19.0666 47.6017C19.8027 47.4531 20.5641 47.6825 21.0949 48.2136C21.626 48.7444 21.8555 49.5057 21.7068 50.2419L20.8859 54.4L24.4522 56.4592L27.6444 53.6692C28.2069 53.1762 28.978 52.9958 29.7003 53.1887C30.4231 53.3815 31.0021 53.9215 31.2444 54.6291L32.6077 58.6418H36.726L38.0941 54.6291C38.3364 53.9215 38.9154 53.3815 39.6382 53.1887C40.3606 52.9958 41.1317 53.1762 41.6942 53.6692L44.8863 56.4592L48.4526 54.4L47.627 50.2419C47.4783 49.5058 47.7077 48.7444 48.2389 48.2136C48.7696 47.6825 49.531 47.4531 50.2671 47.6017L54.4253 48.4226L56.4845 44.8563L53.6945 41.6641C53.2015 41.1016 53.021 40.3306 53.2139 39.6082C53.4068 38.8854 53.9468 38.3064 54.6543 38.0641L54.6541 38.0689ZM51.8833 43.2468L53.5442 45.1452L53.2023 45.7378L50.7277 45.2493V45.2497C49.2089 44.9491 47.6403 45.4261 46.5455 46.5205C45.451 47.6154 44.9741 49.184 45.2747 50.7027L45.7632 53.1773L45.1706 53.5192L43.2722 51.8583H43.2718C42.1066 50.8394 40.5098 50.4685 39.0148 50.8695C37.5198 51.2701 36.3228 52.3898 35.8234 53.8551L35.0086 56.2418H34.3248L33.5099 53.8551C33.0105 52.3898 31.8136 51.27 30.3186 50.8695C28.8235 50.4685 27.2268 50.8394 26.0616 51.8583L24.1631 53.5192L23.5705 53.1773L24.0591 50.7027H24.0587C24.3592 49.1839 23.8823 47.6153 22.7879 46.5205C21.693 45.426 20.1244 44.9491 18.6057 45.2497L16.131 45.7382L15.7891 45.1456L17.4501 43.2472V43.2468C18.469 42.0816 18.8399 40.4848 18.4389 38.9898C18.0383 37.4948 16.9185 36.2978 15.4532 35.7984L13.0666 34.9836V34.2998L15.4532 33.4849C16.9185 32.9855 18.0383 31.7886 18.4389 30.2936C18.8398 28.7985 18.469 27.2018 17.4501 26.0366L15.7894 24.1382L16.1313 23.5455L18.606 24.0341L18.6056 24.0337C20.1244 24.3342 21.693 23.8573 22.7878 22.7629C23.8823 21.668 24.3591 20.0994 24.0586 18.5807L23.57 16.106L24.1627 15.7641L26.0611 17.4251H26.0615C27.2267 18.444 28.8234 18.8149 30.3185 18.4139C31.8135 18.0133 33.0105 16.8935 33.5098 15.4282L34.3247 13.0416H35.0085L35.8233 15.4282C36.3228 16.8935 37.5197 18.0133 39.0147 18.4139C40.5097 18.8148 42.1065 18.444 43.2717 17.4251L45.1701 15.7641L45.7627 16.106L45.2742 18.5807H45.2746C44.974 20.0995 45.451 21.6681 46.5454 22.7629C47.6403 23.8574 49.2089 24.3342 50.7276 24.0337L53.2022 23.5451L53.5441 24.1378L51.8832 26.0362V26.0366C50.8643 27.2018 50.4934 28.7985 50.8944 30.2936C51.295 31.7886 52.4147 32.9856 53.88 33.4849L56.2667 34.2998V34.9836L53.88 35.7984C52.4147 36.2979 51.2949 37.4948 50.8944 38.9898C50.4934 40.4848 50.8644 42.0816 51.8833 43.2468Z" fill="#005F8C"/>
<path d="M27.4667 23.8416C26.1938 23.8416 24.9728 24.3474 24.0724 25.2474C23.1724 26.1478 22.6665 27.3685 22.6665 28.6417C22.6665 29.9146 23.1724 31.1356 24.0724 32.0356C24.9728 32.936 26.1938 33.4415 27.4667 33.4415C28.7395 33.4415 29.9606 32.936 30.861 32.0356C31.761 31.1356 32.2668 29.9146 32.2668 28.6417C32.2668 27.3685 31.761 26.1479 30.861 25.2474C29.9606 24.3474 28.7395 23.8416 27.4667 23.8416ZM27.4667 31.0416C26.8302 31.0416 26.2195 30.7889 25.7695 30.3385C25.3195 29.8885 25.0668 29.2781 25.0668 28.6418C25.0668 28.0049 25.3195 27.3946 25.7695 26.9446C26.2195 26.4946 26.8302 26.2415 27.4667 26.2415C28.1031 26.2415 28.7138 26.4946 29.1638 26.9446C29.6138 27.3946 29.8665 28.005 29.8665 28.6418C29.8665 29.2782 29.6138 29.8885 29.1638 30.3385C28.7138 30.7889 28.1031 31.0416 27.4667 31.0416Z" fill="#005F8C"/>
<path d="M37.0663 40.6413C36.1117 40.6413 35.196 41.0206 34.521 41.696C33.8456 42.371 33.4663 43.2867 33.4663 44.2413C33.4663 45.1964 33.8456 46.1121 34.521 46.7871C35.196 47.4621 36.1117 47.8414 37.0663 47.8414C38.0214 47.8414 38.9371 47.4621 39.6121 46.7871C40.287 46.1121 40.6663 45.1964 40.6663 44.2413C40.6663 43.2867 40.2871 42.371 39.6121 41.696C38.9371 41.0206 38.0214 40.6413 37.0663 40.6413ZM37.0663 45.4415C36.581 45.4415 36.1434 45.149 35.9578 44.7006C35.7722 44.2522 35.8747 43.7363 36.2178 43.3928C36.5613 43.0496 37.0772 42.9472 37.5256 43.1328C37.974 43.3184 38.2665 43.756 38.2665 44.2413C38.2665 44.5595 38.1399 44.8649 37.9149 45.0899C37.6899 45.3149 37.3845 45.4415 37.0663 45.4415Z" fill="#005F8C"/>
<path d="M44.2668 27.4416C43.3121 27.4416 42.3964 27.8209 41.7215 28.4959C41.046 29.1713 40.6667 30.087 40.6667 31.0416C40.6667 31.9962 41.046 32.912 41.7215 33.5873C42.3965 34.2623 43.3121 34.6416 44.2668 34.6416C45.2218 34.6416 46.1375 34.2623 46.8125 33.5873C47.4875 32.9119 47.8668 31.9962 47.8668 31.0416C47.8668 30.087 47.4875 29.1712 46.8125 28.4959C46.1375 27.8209 45.2218 27.4416 44.2668 27.4416ZM44.2668 32.2418C43.7814 32.2418 43.3439 31.9492 43.1583 31.5009C42.9726 31.0525 43.0751 30.5362 43.4182 30.193C43.7617 29.8499 44.2776 29.747 44.7261 29.9331C45.1745 30.1187 45.467 30.5562 45.467 31.0416C45.467 31.3598 45.3404 31.6651 45.1154 31.8901C44.8904 32.1151 44.585 32.2418 44.2668 32.2418Z" fill="#005F8C"/>
<path d="M22.6667 37.0413H25.0666V39.4412H22.6667V37.0413Z" fill="#005F8C"/>
<path d="M34.6667 34.6416H37.0666V37.0415H34.6667V34.6416Z" fill="#005F8C"/>
<path d="M35.8672 22.6412H38.2671V25.0411H35.8672V22.6412Z" fill="#005F8C"/>
<path d="M44.2664 38.2417H46.6662V40.6415H44.2664V38.2417Z" fill="#005F8C"/>
<path d="M26.2664 43.042H28.6662V45.4419H26.2664V43.042Z" fill="#005F8C"/>
</svg>
