<svg width="70" height="70" viewBox="0 0 70 70" fill="none" xmlns="http://www.w3.org/2000/svg">
<path d="M44.266 22.5747C39.5201 22.5747 38.2661 28.0696 38.2661 30.9749H40.666C40.666 30.9138 40.7259 24.975 44.266 24.975C50.5865 24.975 56.1461 37.5843 56.2664 52.0811L54.5709 53.7755C44.2666 53.6795 39.4663 50.6231 39.4663 44.1752V37.9354L44.2134 39.9753C44.2949 42.65 44.5159 46.1242 47.0179 48.6261L48.7146 46.9294C47.3292 45.2788 46.6 43.1755 46.6663 41.0214L50.9984 42.8777L51.9438 40.6723L44.5541 37.5067L44.7558 36.9008L50.5061 35.7512L50.026 33.3992L45.6256 34.2787L46.6 31.3541L44.3198 30.5955L42.3462 36.5589L35.8662 33.7845V12.9753H33.4659V33.7845L26.9919 36.5589L25.0047 30.5959L22.7245 31.3545L23.6989 34.2791L19.3061 33.3992L18.826 35.7513L24.5715 36.9008L24.7732 37.5067L17.3932 40.6723L18.3386 42.8777L22.6658 41.0214C22.7301 43.1754 21.9992 45.2776 20.6127 46.9269L22.3094 48.6237C24.8113 46.1217 25.0324 42.6474 25.1139 39.9728L29.8658 37.9353V44.1751C29.8658 50.6226 25.0657 53.6789 14.7612 53.775L13.0657 52.0806C13.1919 37.5849 18.7454 24.9755 25.0661 24.9755C28.6063 24.9755 28.6661 30.9168 28.6661 30.9754H31.066C31.066 28.0701 29.8121 22.5752 25.0661 22.5752C17.1256 22.5752 10.666 36.0332 10.666 52.5758V53.0724L13.769 56.1758H14.266C18.7182 56.1758 32.2661 56.1758 32.2661 44.1754V36.9094L34.666 35.8808L37.0659 36.9094V44.1754C37.0659 56.1758 50.6133 56.1758 55.066 56.1758H55.5626L58.666 53.0724V52.5758C58.666 36.0342 52.2064 22.5752 44.2659 22.5752L44.266 22.5747Z" fill="#005F8C"/>
</svg>
