<svg width="70" height="70" viewBox="0 0 70 70" fill="none" xmlns="http://www.w3.org/2000/svg">
<g clip-path="url(#clip0_201_251)">
<path fill-rule="evenodd" clip-rule="evenodd" d="M23.2305 12.1003C18.6867 13.0074 16.148 16.9771 16.006 21.3228C16.0323 25.6666 17.1947 29.9278 19.3778 33.6832C19.2341 38.0943 20.0861 42.481 21.8706 46.5175C23.655 50.5541 26.3261 54.1366 29.6852 56.9992C31.0184 57.9075 32.2573 56.9037 32.6691 55.5812C32.9389 53.1313 33.0621 50.6674 33.0379 48.2027C33.0997 46.2843 33.3852 44.3796 33.8889 42.5274C34.1792 41.502 34.7198 40.5648 35.462 39.8001C36.5334 40.528 37.3836 41.5368 37.9195 42.716C38.6745 44.4992 39.1573 46.3858 39.3518 48.3125C39.7528 50.7474 39.5105 53.1667 39.8495 55.4547C39.8527 55.746 39.9227 56.0326 40.0542 56.2925C40.1857 56.5524 40.3751 56.7786 40.6078 56.9538C40.8405 57.129 41.1102 57.2484 41.3963 57.3028C41.6825 57.3572 41.9773 57.3452 42.2581 57.2677C46.4152 55.5753 48.745 51.2355 49.7404 46.3742C50.6721 41.5439 50.4409 36.5613 49.066 31.838C51.2896 27.8432 52.9535 23.6622 53.0048 19.9669C53.0999 18.0061 52.4212 16.0863 51.1148 14.6208C49.8085 13.1553 47.979 12.2613 46.0201 12.1313C42.2664 11.9737 38.5306 13.2831 35.3426 14.2797C32.2716 13.3368 27.5607 11.4737 23.2305 12.1003ZM34.8879 17.3029C35.1649 17.3856 35.4592 17.391 35.7389 17.3184C39.2396 16.0342 42.3225 14.5208 45.5332 15.1104C46.141 15.1253 46.7395 15.263 47.2927 15.5154C47.8459 15.7678 48.3422 16.1295 48.7518 16.5788C49.1614 17.0282 49.4758 17.5558 49.6761 18.1298C49.8763 18.7039 49.9583 19.3126 49.9171 19.9192C49.8801 22.8362 48.3249 26.9922 46.0977 30.8915C45.9959 31.0711 45.9321 31.2697 45.9102 31.475C45.8882 31.6803 45.9085 31.8879 45.97 32.085C47.3331 36.5224 47.5921 41.2256 46.7243 45.7858C46.2829 48.6828 44.8985 51.3534 42.7856 53.3839C42.7248 51.9839 42.6591 50.042 42.4001 47.9449C42.1747 45.7061 41.6058 43.5153 40.7136 41.4496C39.7901 39.2611 38.1003 37.4844 35.9609 36.4522C35.7326 36.3526 35.4841 36.3078 35.2354 36.3215C34.9867 36.3352 34.7446 36.4069 34.5286 36.531C32.7261 37.7167 31.4408 39.5425 30.9325 41.6394C30.35 43.726 30.021 45.8751 29.9526 48.0404C29.8535 49.9214 29.8654 51.5733 29.8237 52.8958C27.3109 50.3359 25.357 47.2822 24.0857 43.928C22.8143 40.5738 22.2533 36.9922 22.438 33.4099C22.4551 33.1117 22.3824 32.8152 22.2291 32.5589C20.2348 29.1663 19.1506 25.3161 19.0817 21.3813C19.7346 18.259 21.0774 15.5568 23.6423 15.0901C27.4211 14.5208 31.3968 16.2693 34.8879 17.3029ZM34.5299 26.5553V24.4069H31.2989V21.2226H29.0383V24.4069H25.8074V26.5553H29.0383V29.7934H31.2989V26.5613H34.5299V26.5553Z" fill="#005F8C"/>
</g>
<defs>
<clipPath id="clip0_201_251">
<rect width="37" height="45.3548" fill="white" transform="translate(16 12)"/>
</clipPath>
</defs>
</svg>
