<svg width="70" height="70" viewBox="0 0 70 70" fill="none" xmlns="http://www.w3.org/2000/svg">
<path d="M49.23 49.1289C47.9542 49.1289 46.7304 49.6359 45.828 50.5379C44.9259 51.4404 44.4189 52.6637 44.4189 53.9399C44.4189 55.2156 44.9259 56.4394 45.828 57.3415C46.7304 58.2439 47.9542 58.7505 49.23 58.7505C50.5057 58.7505 51.7295 58.2439 52.632 57.3415C53.534 56.4394 54.041 55.2156 54.041 53.9399C54.041 52.6637 53.534 51.4404 52.632 50.5379C51.7295 49.6359 50.5057 49.1289 49.23 49.1289ZM49.23 56.3452C48.5921 56.3452 47.98 56.0919 47.529 55.6405C47.078 55.1895 46.8247 54.5777 46.8247 53.9399C46.8247 53.3016 47.078 52.6899 47.529 52.2389C47.98 51.7879 48.592 51.5342 49.23 51.5342C49.8679 51.5342 50.4799 51.7879 50.931 52.2389C51.382 52.6899 51.6353 53.3017 51.6353 53.9399C51.6353 54.5778 51.382 55.1895 50.931 55.6405C50.4799 56.0919 49.8679 56.3452 49.23 56.3452Z" fill="#005F8C"/>
<path d="M53.536 43.1155H50.4331V23.3737L47.3227 20.2632H26.0819L23.71 10.6416H14.3518V13.0469H21.8315L23.9734 21.6139V27.4796H26.3787V22.6686H46.3267L48.0273 24.3691V29.8849H25.1763C20.5102 29.8772 16.1277 32.1214 13.4075 35.9121C10.6872 39.7027 9.9628 44.5729 11.4633 48.9912C12.9638 53.4091 16.5042 56.8313 20.9706 58.1808C25.4369 59.5302 30.2802 58.6414 33.9765 55.7936C37.6721 52.9457 39.7665 48.4894 39.6002 43.8268C39.4339 39.1641 37.0274 34.8681 33.1376 32.291H48.0291V43.1155H40.8127V45.5208H48.0291V47.9261H50.4344L50.4348 45.5208H52.1426L56.6073 53.3384L58.6953 52.1452L53.536 43.1155ZM37.2033 44.318C37.2033 47.5077 35.9364 50.567 33.6809 52.8225C31.4254 55.078 28.3661 56.3453 25.1764 56.3453C21.9867 56.3453 18.9273 55.078 16.6718 52.8225C14.4163 50.567 13.149 47.5077 13.149 44.318C13.149 41.1282 14.4163 38.0689 16.6718 35.8134C18.9273 33.5579 21.9867 32.291 25.1764 32.291C28.365 32.2942 31.4222 33.5627 33.6769 35.8174C35.9316 38.0721 37.2001 41.1294 37.2033 44.318Z" fill="#005F8C"/>
<path d="M25.1761 55.1422C28.0469 55.1422 30.8002 54.0018 32.8301 51.9717C34.8601 49.9418 36.0006 47.1885 36.0006 44.3177C36.0006 41.4468 34.8602 38.6936 32.8301 36.6636C30.8002 34.6337 28.0469 33.4932 25.1761 33.4932C22.3052 33.4932 19.552 34.6336 17.522 36.6636C15.4921 38.6936 14.3516 41.4468 14.3516 44.3177C14.3548 47.1877 15.4964 49.9389 17.5256 51.9681C19.5548 53.9973 22.306 55.139 25.1761 55.1422ZM25.1761 35.8987C27.4086 35.8987 29.5502 36.7854 31.1291 38.3644C32.7081 39.9433 33.5948 42.0849 33.5948 44.3175C33.5948 46.5504 32.7081 48.692 31.1291 50.2709C29.5502 51.8494 27.4086 52.7366 25.1761 52.7366C22.9431 52.7366 20.8015 51.8495 19.2226 50.2709C17.6441 48.692 16.7569 46.5504 16.7569 44.3175C16.7593 42.0853 17.6472 39.9454 19.2254 38.3672C20.8039 36.789 22.9438 35.901 25.1761 35.8987Z" fill="#005F8C"/>
<path d="M23.9727 43.1156H26.378V45.5209H23.9727V43.1156Z" fill="#005F8C"/>
</svg>
