<svg width="70" height="70" viewBox="0 0 70 70" fill="none" xmlns="http://www.w3.org/2000/svg">
<path d="M59.4744 22.4012L48.5312 11.458H45.7471L35.4832 21.7307L25.2192 11.4667H22.4264L11.4832 22.4099V25.1978L21.7558 35.458L11.4919 45.7219V48.5148L22.4351 59.458H25.223L35.4832 49.1853L45.7471 59.4493H48.54L59.4832 48.5061V45.7219L49.2105 35.458L59.4744 25.1941V22.4012ZM13.9792 24.1645V23.4358L23.4608 13.9543H24.1894L33.7247 23.4896L23.5141 33.7002L13.9792 24.1645ZM56.9867 46.7511V47.4797L47.5051 56.9613H46.7765L37.2412 47.426L47.4518 37.2154L56.9867 46.7511ZM56.9867 24.1645L24.1891 56.9621H23.4605L13.9789 47.4805V46.7519L46.7765 13.9543H47.5051L56.9867 23.4358V24.1645Z" fill="#005F8C"/>
<path d="M26.7781 36.702H29.2649V39.1888H26.7781V36.702Z" fill="#005F8C"/>
<path d="M31.7527 41.6753H34.2396V44.1622H31.7527V41.6753Z" fill="#005F8C"/>
<path d="M31.7527 31.7276H34.2396V34.2145H31.7527V31.7276Z" fill="#005F8C"/>
<path d="M36.7263 36.702H39.2132V39.1888H36.7263V36.702Z" fill="#005F8C"/>
<path d="M36.7263 26.7532H39.2132V29.2401H36.7263V26.7532Z" fill="#005F8C"/>
<path d="M41.7002 31.7276H44.1871V34.2145H41.7002V31.7276Z" fill="#005F8C"/>
<path d="M31.7527 36.702H34.2396V39.1888H31.7527V36.702Z" fill="#005F8C"/>
<path d="M36.7263 31.7276H39.2132V34.2145H36.7263V31.7276Z" fill="#005F8C"/>
</svg>
